<svg width="48" height="48" viewBox="0 0 100 100" fill="none" xmlns="http://www.w3.org/2000/svg">
  <defs>
    <linearGradient id="favTopGrad" x1="20%" y1="0%" x2="80%" y2="100%">
      <stop offset="0%" stop-color="#38bdf8" />
      <stop offset="60%" stop-color="#60a5fa" />
      <stop offset="100%" stop-color="#818cf8" />
    </linearGradient>
    <linearGradient id="favLeftGrad" x1="0%" y1="0%" x2="100%" y2="100%">
      <stop offset="0%" stop-color="#2563eb" />
      <stop offset="50%" stop-color="#1d4ed8" />
      <stop offset="100%" stop-color="#1e3a8a" />
    </linearGradient>
    <linearGradient id="favRightGrad" x1="0%" y1="0%" x2="100%" y2="100%">
      <stop offset="0%" stop-color="#8b5cf6" />
      <stop offset="60%" stop-color="#a855f7" />
      <stop offset="100%" stop-color="#d946ef" />
    </linearGradient>
    <filter id="favNefroGlow" x="-30%" y="-30%" width="160%" height="160%">
      <feDropShadow dx="0" dy="1.2" stdDeviation="1.5" flood-color="#0f172a" flood-opacity="0.5" />
    </filter>
  </defs>
  <g stroke-linejoin="round" stroke-linecap="round">
    <path d="M 50 12 L 84 29 L 50 49 L 16 29 Z" fill="url(#favTopGrad)" stroke="#60a5fa" stroke-width="1.2" />
    <path d="M 16 29 L 50 49 L 50 88 L 16 68 Z" fill="url(#favLeftGrad)" stroke="#2563eb" stroke-width="1.2" />
    <path d="M 50 49 L 84 29 L 84 68 L 50 88 Z" fill="url(#favRightGrad)" stroke="#a855f7" stroke-width="1.2" />
    <line x1="50" y1="49" x2="50" y2="88" stroke="#ffffff" stroke-width="1" stroke-opacity="0.25" />
  </g>
  <svg x="23" y="23" width="54" height="54" viewBox="0 0 24 24" overflow="visible">
    <g stroke="#ffffff" stroke-width="2.1" stroke-linecap="round" stroke-linejoin="round" filter="url(#favNefroGlow)">
      <path d="M7.2 4.2C4.5 4.5 3 7.2 3 11.2C3 15.5 5.2 18.8 8.2 18.8C10.2 18.8 10.8 16 9.8 13.8C8.8 11.6 9.8 7.5 8.8 5.6C8.4 4.8 7.8 4.3 7.2 4.2Z" fill="rgba(255, 255, 255, 0.3)" />
      <path d="M16.8 4.2C19.5 4.5 21 7.2 21 11.2C21 15.5 18.8 18.8 15.8 18.8C13.8 18.8 13.2 16 14.2 13.8C15.2 11.6 14.2 7.5 15.2 5.6C15.6 4.8 16.2 4.3 16.8 4.2Z" fill="rgba(255, 255, 255, 0.3)" />
      <path d="M9.8 12.5C11 12.5 11.5 13 12 14" opacity="0.95" fill="none" stroke-width="2.0" />
      <path d="M14.2 12.5C13 12.5 12.5 13 12 14" opacity="0.95" fill="none" stroke-width="2.0" />
      <path d="M11.5 14.5V20.5" opacity="0.9" fill="none" stroke-width="2.0" />
      <path d="M12.5 14.5V20.5" opacity="0.9" fill="none" stroke-width="2.0" />
    </g>
  </svg>
</svg>